<svg width="46" height="46" viewBox="0 0 46 46" fill="none" xmlns="http://www.w3.org/2000/svg">
<mask id="mask0_96_1850" style="mask-type:alpha" maskUnits="userSpaceOnUse" x="0" y="0" width="46" height="46">
<rect width="45.4021" height="45.4021" rx="4" fill="#DB5408"/>
</mask>
<g mask="url(#mask0_96_1850)">
<path d="M14 27.75C14 28.9926 15.0074 30 16.25 30C17.4926 30 18.5 28.9926 18.5 27.75V25C18.5 22.7909 20.2909 21 22.5 21H23.5C25.7091 21 27.5 22.7909 27.5 25V27.75C27.5 28.9926 28.5074 30 29.75 30C30.9926 30 32 28.9926 32 27.75V18.5C32 17.241 31.4072 16.0554 30.4 15.3L25.4 11.55C23.9778 10.4833 22.0222 10.4833 20.6 11.55L15.6 15.3C14.5928 16.0554 14 17.241 14 18.5V27.75ZM15 33C12.7909 33 11 31.2091 11 29V17C11 15.741 11.5928 14.5554 12.6 13.8L20.6 7.8C22.0222 6.73333 23.9778 6.73333 25.4 7.8L33.4 13.8C34.4072 14.5554 35 15.741 35 17V29C35 31.2091 33.2091 33 31 33H28.5C26.2909 33 24.5 31.2091 24.5 29V25.5C24.5 24.6716 23.8284 24 23 24C22.1716 24 21.5 24.6716 21.5 25.5V29C21.5 31.2091 19.7091 33 17.5 33H15Z" fill="#DB5408"/>
</g>
</svg>
